<svg width="116" height="19" viewBox="0 0 116 19" fill="none" xmlns="http://www.w3.org/2000/svg">
<path d="M1.36143 18C1.19571 18 1.04657 17.942 0.914 17.826C0.798 17.6934 0.74 17.5443 0.74 17.3786V1.22143C0.74 1.03914 0.798 0.889999 0.914 0.773999C1.04657 0.657999 1.19571 0.599998 1.36143 0.599998H12.9697C13.152 0.599998 13.3011 0.657999 13.4171 0.773999C13.5331 0.889999 13.5911 1.03914 13.5911 1.22143V3.558C13.5911 3.72371 13.5331 3.87286 13.4171 4.00543C13.3011 4.12143 13.152 4.17943 12.9697 4.17943H5.04029V7.53514H12.4229C12.6051 7.53514 12.7543 7.60143 12.8703 7.734C12.9863 7.85 13.0443 7.99914 13.0443 8.18143V10.344C13.0443 10.5097 12.9863 10.6589 12.8703 10.7914C12.7543 10.9074 12.6051 10.9654 12.4229 10.9654H5.04029V14.4206H13.1686C13.3509 14.4206 13.5 14.4786 13.616 14.5946C13.732 14.7106 13.79 14.8597 13.79 15.042V17.3786C13.79 17.5443 13.732 17.6934 13.616 17.826C13.5 17.942 13.3509 18 13.1686 18H1.36143ZM16.7439 12.3326C16.5616 12.3326 16.4125 12.2746 16.2965 12.1586C16.1805 12.0426 16.1225 11.8934 16.1225 11.7111V9.37457C16.1225 9.19229 16.1805 9.04314 16.2965 8.92714C16.4125 8.81114 16.5616 8.75314 16.7439 8.75314H24.5242C24.7065 8.75314 24.8556 8.81114 24.9716 8.92714C25.1042 9.04314 25.1705 9.19229 25.1705 9.37457V11.7111C25.1705 11.8934 25.1042 12.0426 24.9716 12.1586C24.8556 12.2746 24.7065 12.3326 24.5242 12.3326H16.7439ZM40.0712 18.2486C38.4969 18.2486 37.1463 18.0166 36.0195 17.5526C34.8926 17.0886 34.0392 16.4837 33.4592 15.738C32.8958 14.9757 32.5975 14.1471 32.5643 13.2523C32.5643 13.1197 32.614 13.0037 32.7135 12.9043C32.8295 12.7883 32.962 12.7303 33.1112 12.7303H36.2432C36.442 12.7303 36.5995 12.7717 36.7155 12.8546C36.848 12.9209 36.9806 13.0286 37.1132 13.1777C37.3286 13.6086 37.6766 13.9649 38.1572 14.2466C38.6378 14.5283 39.2758 14.6691 40.0712 14.6691C41.0158 14.6691 41.7366 14.52 42.2338 14.2217C42.7309 13.9234 42.9795 13.5174 42.9795 13.0037C42.9795 12.6391 42.8469 12.3409 42.5818 12.1089C42.3332 11.8769 41.9355 11.6697 41.3886 11.4874C40.8418 11.3051 40.0298 11.098 38.9526 10.866C36.964 10.4517 35.4726 9.84686 34.4783 9.05143C33.5006 8.23943 33.0118 7.08771 33.0118 5.59629C33.0118 4.58543 33.2935 3.68229 33.8569 2.88686C34.4203 2.09143 35.224 1.47 36.268 1.02257C37.312 0.575142 38.53 0.351427 39.922 0.351427C41.3638 0.351427 42.6149 0.599999 43.6755 1.09714C44.736 1.59428 45.5398 2.224 46.0866 2.98628C46.65 3.732 46.9483 4.46943 46.9815 5.19857C46.9815 5.34771 46.9318 5.472 46.8323 5.57143C46.7329 5.67086 46.6086 5.72057 46.4595 5.72057H43.1783C42.9795 5.72057 42.8138 5.68743 42.6812 5.62114C42.5652 5.55486 42.4575 5.44714 42.358 5.298C42.2586 4.91686 41.9852 4.59371 41.5378 4.32857C41.1069 4.06343 40.5683 3.93086 39.922 3.93086C39.1763 3.93086 38.6046 4.06343 38.2069 4.32857C37.8092 4.59371 37.6103 4.98314 37.6103 5.49686C37.6103 5.84486 37.718 6.13486 37.9335 6.36686C38.1655 6.59886 38.53 6.81428 39.0272 7.01314C39.5409 7.19543 40.27 7.386 41.2146 7.58486C42.7558 7.86657 43.982 8.22286 44.8935 8.65371C45.8215 9.068 46.5009 9.61486 46.9318 10.2943C47.3626 10.9571 47.578 11.794 47.578 12.8049C47.578 13.9151 47.2549 14.8846 46.6086 15.7131C45.9789 16.5251 45.0923 17.1549 43.9489 17.6023C42.822 18.0331 41.5295 18.2486 40.0712 18.2486ZM55.7333 18.2486C53.8608 18.2486 52.3445 17.7514 51.1845 16.7571C50.0245 15.7463 49.403 14.346 49.3202 12.5563L49.2953 11.562L49.3202 10.5429C49.3865 8.75314 49.9996 7.35286 51.1596 6.342C52.3362 5.33114 53.8608 4.82571 55.7333 4.82571C57.1419 4.82571 58.3268 5.08257 59.2879 5.59629C60.2656 6.09343 60.9865 6.69829 61.4505 7.41086C61.931 8.10686 62.1879 8.74486 62.221 9.32486C62.2376 9.49057 62.1796 9.63971 62.047 9.77228C61.931 9.88829 61.7819 9.94629 61.5996 9.94629H58.4428C58.2605 9.94629 58.1196 9.90486 58.0202 9.822C57.9208 9.73914 57.8296 9.61486 57.7468 9.44914C57.5479 8.93543 57.291 8.57086 56.9762 8.35543C56.6779 8.14 56.2885 8.03228 55.8079 8.03228C54.449 8.03228 53.7448 8.91057 53.695 10.6671L53.6702 11.6117L53.695 12.432C53.7282 13.3269 53.9188 13.9897 54.2668 14.4206C54.6313 14.8349 55.145 15.042 55.8079 15.042C56.3216 15.042 56.7276 14.9343 57.0259 14.7189C57.3242 14.5034 57.5645 14.1389 57.7468 13.6251C57.8296 13.4594 57.9208 13.3351 58.0202 13.2523C58.1196 13.1694 58.2605 13.128 58.4428 13.128H61.5996C61.7653 13.128 61.9062 13.186 62.0222 13.302C62.1548 13.4014 62.221 13.534 62.221 13.6997C62.221 14.23 61.989 14.8514 61.525 15.564C61.0776 16.2766 60.365 16.9063 59.3873 17.4531C58.4096 17.9834 57.1916 18.2486 55.7333 18.2486ZM65.0757 18C64.91 18 64.7609 17.942 64.6283 17.826C64.5123 17.6934 64.4543 17.5443 64.4543 17.3786V0.972855C64.4543 0.79057 64.5123 0.641427 64.6283 0.525428C64.7609 0.409427 64.91 0.351427 65.0757 0.351427H68.2574C68.4397 0.351427 68.5889 0.409427 68.7049 0.525428C68.8209 0.641427 68.8789 0.79057 68.8789 0.972855V6.516C69.8732 5.38914 71.1823 4.82571 72.8063 4.82571C73.7674 4.82571 74.6209 5.04114 75.3666 5.472C76.1289 5.90286 76.7254 6.54086 77.1563 7.386C77.5872 8.23114 77.8026 9.25029 77.8026 10.4434V17.3786C77.8026 17.5443 77.7446 17.6934 77.6286 17.826C77.5126 17.942 77.3634 18 77.1812 18H73.9746C73.8089 18 73.6597 17.942 73.5272 17.826C73.4112 17.6934 73.3532 17.5443 73.3532 17.3786V10.5926C73.3532 9.81371 73.1626 9.21714 72.7814 8.80286C72.4169 8.372 71.8783 8.15657 71.1657 8.15657C70.4532 8.15657 69.8897 8.372 69.4754 8.80286C69.0777 9.21714 68.8789 9.81371 68.8789 10.5926V17.3786C68.8789 17.5609 68.8209 17.71 68.7049 17.826C68.5889 17.942 68.4397 18 68.2574 18H65.0757ZM86.736 18.2486C84.6812 18.2486 83.0986 17.7597 81.9883 16.782C80.878 15.8043 80.2732 14.4289 80.1737 12.6557C80.1572 12.4403 80.1489 12.0674 80.1489 11.5371C80.1489 11.0069 80.1572 10.634 80.1737 10.4186C80.2732 8.662 80.8946 7.29486 82.038 6.31714C83.1814 5.32286 84.7474 4.82571 86.736 4.82571C88.7412 4.82571 90.3154 5.32286 91.4589 6.31714C92.6023 7.29486 93.2237 8.662 93.3232 10.4186C93.3397 10.634 93.348 11.0069 93.348 11.5371C93.348 12.0674 93.3397 12.4403 93.3232 12.6557C93.2237 14.4289 92.6189 15.8043 91.5086 16.782C90.3983 17.7597 88.8074 18.2486 86.736 18.2486ZM86.736 15.216C87.4652 15.216 88.0037 15.0006 88.3517 14.5697C88.6997 14.1223 88.8986 13.4429 88.9483 12.5314C88.9649 12.3657 88.9732 12.0343 88.9732 11.5371C88.9732 11.04 88.9649 10.7086 88.9483 10.5429C88.8986 9.648 88.6914 8.97686 88.3269 8.52943C87.9789 8.082 87.4486 7.85828 86.736 7.85828C85.3606 7.85828 84.6314 8.75314 84.5486 10.5429L84.5237 11.5371L84.5486 12.5314C84.5817 13.4429 84.7723 14.1223 85.1203 14.5697C85.4849 15.0006 86.0234 15.216 86.736 15.216ZM101.932 18.2486C99.877 18.2486 98.2944 17.7597 97.1842 16.782C96.0739 15.8043 95.469 14.4289 95.3696 12.6557C95.353 12.4403 95.3447 12.0674 95.3447 11.5371C95.3447 11.0069 95.353 10.634 95.3696 10.4186C95.469 8.662 96.0904 7.29486 97.2339 6.31714C98.3773 5.32286 99.9433 4.82571 101.932 4.82571C103.937 4.82571 105.511 5.32286 106.655 6.31714C107.798 7.29486 108.42 8.662 108.519 10.4186C108.536 10.634 108.544 11.0069 108.544 11.5371C108.544 12.0674 108.536 12.4403 108.519 12.6557C108.42 14.4289 107.815 15.8043 106.704 16.782C105.594 17.7597 104.003 18.2486 101.932 18.2486ZM101.932 15.216C102.661 15.216 103.2 15.0006 103.548 14.5697C103.896 14.1223 104.094 13.4429 104.144 12.5314C104.161 12.3657 104.169 12.0343 104.169 11.5371C104.169 11.04 104.161 10.7086 104.144 10.5429C104.094 9.648 103.887 8.97686 103.523 8.52943C103.175 8.082 102.644 7.85828 101.932 7.85828C100.556 7.85828 99.8273 8.75314 99.7444 10.5429L99.7196 11.5371L99.7444 12.5314C99.7776 13.4429 99.9682 14.1223 100.316 14.5697C100.681 15.0006 101.219 15.216 101.932 15.216ZM111.634 18C111.469 18 111.319 17.942 111.187 17.826C111.071 17.6934 111.013 17.5443 111.013 17.3786V0.972855C111.013 0.79057 111.071 0.641427 111.187 0.525428C111.319 0.409427 111.469 0.351427 111.634 0.351427H114.567C114.75 0.351427 114.899 0.409427 115.015 0.525428C115.131 0.641427 115.189 0.79057 115.189 0.972855V17.3786C115.189 17.5609 115.131 17.71 115.015 17.826C114.899 17.942 114.75 18 114.567 18H111.634Z" fill="#56548C"/>
</svg>
